<svg height="512pt" viewBox="0 -55 512 512" width="512pt" xmlns="http://www.w3.org/2000/svg"><path d="m504.164062 361.578125c0 18.3125-14.816406 33.160156-33.089843 33.160156h-430.148438c-18.273437 0-33.089843-14.847656-33.089843-33.160156v-320.578125c0-18.316406 14.816406-33.164062 33.089843-33.164062h430.148438c18.273437 0 33.089843 14.851562 33.089843 33.164062zm0 0" fill="#ffc843"/><path d="m471.074219 7.835938h-19.332031c18.277343 0 33.089843 14.847656 33.089843 33.164062v320.578125c0 18.3125-14.8125 33.160156-33.089843 33.160156h19.332031c18.273437 0 33.089843-14.847656 33.089843-33.160156v-320.578125c0-18.316406-14.816406-33.164062-33.089843-33.164062zm0 0" fill="#fff"/><path d="m49.632812 51.265625h412.734376v303.308594h-412.734376zm0 0" fill="#fff"/><path d="m29.257812 361.578125v-320.578125c0-18.316406 14.8125-33.164062 33.089844-33.164062h-21.421875c-18.273437 0-33.089843 14.847656-33.089843 33.164062v320.578125c0 18.3125 14.816406 33.160156 33.089843 33.160156h21.421875c-18.277344 0-33.089844-14.847656-33.089844-33.160156zm0 0" fill="#ffa816"/><path d="m462.367188 354.574219v-52.519531l-81.699219-100.585938c-2.976563-3.664062-7.445313-5.792969-12.167969-5.792969s-9.191406 2.128907-12.167969 5.792969l-116.332031 143.226562c-2.3125 2.847657-3.496094 6.347657-3.496094 9.878907zm0 0" fill="#76ffd9"/><path d="m339.59375 135.460938c0 20.773437-16.84375 37.613281-37.617188 37.613281-20.777343 0-37.617187-16.839844-37.617187-37.613281 0-20.777344 16.839844-37.617188 37.617187-37.617188 20.773438 0 37.617188 16.839844 37.617188 37.617188zm0 0" fill="#ffc843"/><path d="m190.386719 170.507812c-2.976563-3.664062-7.445313-5.792968-12.164063-5.792968-4.722656 0-9.191406 2.128906-12.167968 5.792968l-116.421876 143.335938v40.730469h290.261719zm0 0" fill="#5de0bf"/><path d="m49.632812 51.265625h21.421876v303.308594h-21.421876zm0 0" fill="#e1eaf8"/><path d="m49.632812 313.84375v40.730469h21.421876v-67.101563zm0 0" fill="#00c395"/><path d="m471.074219 0h-430.148438c-22.566406 0-40.925781 18.390625-40.925781 41v320.578125c0 22.605469 18.359375 41 40.925781 41h430.148438c22.566406 0 40.925781-18.394531 40.925781-41v-320.578125c0-22.609375-18.359375-41-40.925781-41zm25.253906 361.578125c0 13.964844-11.328125 25.324219-25.253906 25.324219h-430.148438c-13.925781 0-25.253906-11.359375-25.253906-25.324219v-320.578125c0-13.964844 11.328125-25.324219 25.253906-25.324219h430.148438c13.925781-.003906 25.253906 11.359375 25.253906 25.324219zm0 0" fill="#434c54"/></svg>